<svg width="60" height="19" viewBox="0 0 60 19" fill="none" xmlns="http://www.w3.org/2000/svg">
<path d="M8.14844 14.6514C7.43294 14.9977 6.4987 15.1709 5.3457 15.1709C3.8418 15.1709 2.65918 14.7288 1.79785 13.8447C0.936523 12.9606 0.505859 11.7826 0.505859 10.3105C0.505859 8.74284 0.988932 7.47135 1.95508 6.49609C2.92578 5.52083 4.18359 5.0332 5.72852 5.0332C6.68555 5.0332 7.49219 5.15397 8.14844 5.39551V7.52148C7.49219 7.12956 6.74479 6.93359 5.90625 6.93359C4.98568 6.93359 4.24284 7.22298 3.67773 7.80176C3.11263 8.38053 2.83008 9.16439 2.83008 10.1533C2.83008 11.1012 3.09668 11.8577 3.62988 12.4229C4.16309 12.9834 4.88086 13.2637 5.7832 13.2637C6.64453 13.2637 7.43294 13.054 8.14844 12.6348V14.6514ZM12.9814 15.1709C11.8148 15.1709 10.8965 14.8451 10.2266 14.1934C9.5612 13.5371 9.22852 12.6484 9.22852 11.5273C9.22852 10.3698 9.57487 9.46517 10.2676 8.81348C10.9603 8.15723 11.8968 7.8291 13.0771 7.8291C14.2393 7.8291 15.1507 8.15723 15.8115 8.81348C16.4723 9.46517 16.8027 10.3288 16.8027 11.4043C16.8027 12.5664 16.4609 13.4847 15.7773 14.1592C15.0983 14.8337 14.1663 15.1709 12.9814 15.1709ZM13.0361 9.4834C12.5257 9.4834 12.1292 9.65885 11.8467 10.0098C11.5641 10.3607 11.4229 10.8574 11.4229 11.5C11.4229 12.8444 11.9652 13.5166 13.0498 13.5166C14.0843 13.5166 14.6016 12.8262 14.6016 11.4453C14.6016 10.1374 14.0798 9.4834 13.0361 9.4834ZM29.3193 15H27.166V11.0078C27.166 9.99154 26.7923 9.4834 26.0449 9.4834C25.6895 9.4834 25.4001 9.63607 25.1768 9.94141C24.9535 10.2467 24.8418 10.6273 24.8418 11.083V15H22.6816V10.9668C22.6816 9.97786 22.3148 9.4834 21.5811 9.4834C21.2119 9.4834 20.9157 9.62923 20.6924 9.9209C20.4736 10.2126 20.3643 10.609 20.3643 11.1104V15H18.2041V8H20.3643V9.09375H20.3916C20.6149 8.72005 20.9271 8.41699 21.3281 8.18457C21.7337 7.94759 22.1758 7.8291 22.6543 7.8291C23.6432 7.8291 24.32 8.26432 24.6846 9.13477C25.2178 8.26432 26.0016 7.8291 27.0361 7.8291C28.5583 7.8291 29.3193 8.7679 29.3193 10.6455V15ZM42.1436 15H39.9902V11.0078C39.9902 9.99154 39.6165 9.4834 38.8691 9.4834C38.5137 9.4834 38.2243 9.63607 38.001 9.94141C37.7777 10.2467 37.666 10.6273 37.666 11.083V15H35.5059V10.9668C35.5059 9.97786 35.139 9.4834 34.4053 9.4834C34.0361 9.4834 33.7399 9.62923 33.5166 9.9209C33.2979 10.2126 33.1885 10.609 33.1885 11.1104V15H31.0283V8H33.1885V9.09375H33.2158C33.4391 8.72005 33.7513 8.41699 34.1523 8.18457C34.5579 7.94759 35 7.8291 35.4785 7.8291C36.4674 7.8291 37.1442 8.26432 37.5088 9.13477C38.042 8.26432 38.8258 7.8291 39.8604 7.8291C41.3825 7.8291 42.1436 8.7679 42.1436 10.6455V15ZM47.1885 15.1709C46.0218 15.1709 45.1035 14.8451 44.4336 14.1934C43.7682 13.5371 43.4355 12.6484 43.4355 11.5273C43.4355 10.3698 43.7819 9.46517 44.4746 8.81348C45.1673 8.15723 46.1038 7.8291 47.2842 7.8291C48.4463 7.8291 49.3577 8.15723 50.0186 8.81348C50.6794 9.46517 51.0098 10.3288 51.0098 11.4043C51.0098 12.5664 50.668 13.4847 49.9844 14.1592C49.3053 14.8337 48.3734 15.1709 47.1885 15.1709ZM47.2432 9.4834C46.7327 9.4834 46.3363 9.65885 46.0537 10.0098C45.7712 10.3607 45.6299 10.8574 45.6299 11.5C45.6299 12.8444 46.1722 13.5166 47.2568 13.5166C48.2913 13.5166 48.8086 12.8262 48.8086 11.4453C48.8086 10.1374 48.2868 9.4834 47.2432 9.4834ZM59.1719 15H57.0186V11.1104C57.0186 10.0257 56.6312 9.4834 55.8564 9.4834C55.4827 9.4834 55.1751 9.62695 54.9336 9.91406C54.6921 10.2012 54.5713 10.5658 54.5713 11.0078V15H52.4111V8H54.5713V9.10742H54.5986C55.1136 8.25521 55.8633 7.8291 56.8477 7.8291C58.3971 7.8291 59.1719 8.79069 59.1719 10.7139V15Z" fill="#F2F2F2"/>
</svg>
