<svg width="27" height="19" viewBox="0 0 27 19" fill="none" xmlns="http://www.w3.org/2000/svg">
<path d="M7 15H1.12109V5.19727H6.77441V6.99512H3.3291V9.17578H6.53516V10.9668H3.3291V13.209H7V15ZM10.5479 14.1865H10.5205V18.2197H8.36035V8H10.5205V9.05273H10.5479C11.0811 8.23698 11.8307 7.8291 12.7969 7.8291C13.7038 7.8291 14.4033 8.14128 14.8955 8.76562C15.3923 9.38542 15.6406 10.2308 15.6406 11.3018C15.6406 12.4684 15.3512 13.4049 14.7725 14.1113C14.1982 14.8177 13.4326 15.1709 12.4756 15.1709C11.6325 15.1709 10.9899 14.8428 10.5479 14.1865ZM10.4863 11.3154V11.876C10.4863 12.359 10.6139 12.7533 10.8691 13.0586C11.1243 13.3639 11.4593 13.5166 11.874 13.5166C12.3662 13.5166 12.7467 13.3275 13.0156 12.9492C13.2891 12.5664 13.4258 12.0264 13.4258 11.3291C13.4258 10.0986 12.9473 9.4834 11.9902 9.4834C11.5482 9.4834 11.1859 9.65202 10.9033 9.98926C10.6253 10.3219 10.4863 10.764 10.4863 11.3154ZM18.1357 6.89258C17.7712 6.89258 17.4727 6.78548 17.2402 6.57129C17.0078 6.35254 16.8916 6.08594 16.8916 5.77148C16.8916 5.44792 17.0078 5.18359 17.2402 4.97852C17.4727 4.77344 17.7712 4.6709 18.1357 4.6709C18.5049 4.6709 18.8034 4.77344 19.0312 4.97852C19.2637 5.18359 19.3799 5.44792 19.3799 5.77148C19.3799 6.09961 19.2637 6.36849 19.0312 6.57812C18.8034 6.78776 18.5049 6.89258 18.1357 6.89258ZM19.2021 15H17.042V8H19.2021V15ZM26.3252 14.7471C25.8376 15.0296 25.1335 15.1709 24.2129 15.1709C23.1374 15.1709 22.2669 14.8451 21.6016 14.1934C20.9362 13.5417 20.6035 12.7008 20.6035 11.6709C20.6035 10.4814 20.959 9.54492 21.6699 8.86133C22.3854 8.17318 23.3402 7.8291 24.5342 7.8291C25.359 7.8291 25.9561 7.93848 26.3252 8.15723V9.98926C25.874 9.65202 25.3704 9.4834 24.8145 9.4834C24.1947 9.4834 23.7025 9.66569 23.3379 10.0303C22.9779 10.3903 22.7979 10.8893 22.7979 11.5273C22.7979 12.1471 22.971 12.6348 23.3174 12.9902C23.6637 13.3411 24.14 13.5166 24.7461 13.5166C25.2839 13.5166 25.8102 13.348 26.3252 13.0107V14.7471Z" fill="url(#paint0_linear_13_1090)"/>
<defs>
<linearGradient id="paint0_linear_13_1090" x1="0.5625" y1="11.2812" x2="26.4671" y2="11.2813" gradientUnits="userSpaceOnUse">
<stop stop-color="#29EC25"/>
<stop offset="1" stop-color="#3B5FE0"/>
</linearGradient>
</defs>
</svg>
