<svg width="48" height="19" viewBox="0 0 48 19" fill="none" xmlns="http://www.w3.org/2000/svg">
<path d="M6.95898 15H1.12109V5.19727H3.3291V13.209H6.95898V15ZM14.3623 12.1152H9.7959C9.86882 13.1315 10.5091 13.6396 11.7168 13.6396C12.487 13.6396 13.1637 13.4574 13.7471 13.0928V14.6514C13.0999 14.9977 12.2591 15.1709 11.2246 15.1709C10.0944 15.1709 9.21712 14.8587 8.59277 14.2344C7.96842 13.6055 7.65625 12.7305 7.65625 11.6094C7.65625 10.4473 7.99349 9.52669 8.66797 8.84766C9.34245 8.16862 10.1719 7.8291 11.1562 7.8291C12.1771 7.8291 12.9655 8.13216 13.5215 8.73828C14.082 9.3444 14.3623 10.167 14.3623 11.2061V12.1152ZM12.3594 10.7891C12.3594 9.78646 11.9538 9.28516 11.1426 9.28516C10.7962 9.28516 10.4954 9.42871 10.2402 9.71582C9.98958 10.0029 9.83691 10.3607 9.78223 10.7891H12.3594ZM22.5107 14.2002C22.5107 15.499 22.1348 16.5039 21.3828 17.2148C20.6309 17.9303 19.5417 18.2881 18.1152 18.2881C17.1719 18.2881 16.4245 18.1536 15.873 17.8848V16.0664C16.5931 16.4857 17.32 16.6953 18.0537 16.6953C18.7829 16.6953 19.348 16.5016 19.749 16.1143C20.1501 15.7314 20.3506 15.2096 20.3506 14.5488V13.9951H20.3232C19.8311 14.779 19.1042 15.1709 18.1426 15.1709C17.2493 15.1709 16.5407 14.8564 16.0166 14.2275C15.4925 13.5986 15.2305 12.7555 15.2305 11.6982C15.2305 10.5133 15.5221 9.57227 16.1055 8.875C16.6888 8.17773 17.4567 7.8291 18.4092 7.8291C19.2614 7.8291 19.8994 8.15723 20.3232 8.81348H20.3506V8H22.5107V14.2002ZM20.3779 11.6367V11.083C20.3779 10.641 20.2458 10.265 19.9814 9.95508C19.7217 9.64062 19.3822 9.4834 18.9629 9.4834C18.4844 9.4834 18.1084 9.67025 17.835 10.0439C17.5615 10.4176 17.4248 10.944 17.4248 11.623C17.4248 12.2064 17.5547 12.6689 17.8145 13.0107C18.0742 13.348 18.4297 13.5166 18.8809 13.5166C19.3275 13.5166 19.6875 13.3457 19.9609 13.0039C20.2389 12.6576 20.3779 12.2018 20.3779 11.6367ZM30.6045 12.1152H26.0381C26.111 13.1315 26.7513 13.6396 27.959 13.6396C28.7292 13.6396 29.4059 13.4574 29.9893 13.0928V14.6514C29.3421 14.9977 28.5013 15.1709 27.4668 15.1709C26.3366 15.1709 25.4593 14.8587 24.835 14.2344C24.2106 13.6055 23.8984 12.7305 23.8984 11.6094C23.8984 10.4473 24.2357 9.52669 24.9102 8.84766C25.5846 8.16862 26.4141 7.8291 27.3984 7.8291C28.4193 7.8291 29.2077 8.13216 29.7637 8.73828C30.3242 9.3444 30.6045 10.167 30.6045 11.2061V12.1152ZM28.6016 10.7891C28.6016 9.78646 28.196 9.28516 27.3848 9.28516C27.0384 9.28516 26.7376 9.42871 26.4824 9.71582C26.2318 10.0029 26.0791 10.3607 26.0244 10.7891H28.6016ZM38.6504 15H36.4971V11.1104C36.4971 10.0257 36.1097 9.4834 35.335 9.4834C34.9613 9.4834 34.6536 9.62695 34.4121 9.91406C34.1706 10.2012 34.0498 10.5658 34.0498 11.0078V15H31.8896V8H34.0498V9.10742H34.0771C34.5921 8.25521 35.3418 7.8291 36.3262 7.8291C37.8757 7.8291 38.6504 8.79069 38.6504 10.7139V15ZM47.2158 15H45.0557V14.0361H45.0283C44.5361 14.7926 43.8138 15.1709 42.8613 15.1709C41.9863 15.1709 41.2822 14.8633 40.749 14.248C40.2158 13.6283 39.9492 12.7646 39.9492 11.6572C39.9492 10.4997 40.2432 9.57227 40.8311 8.875C41.4189 8.17773 42.1891 7.8291 43.1416 7.8291C44.0439 7.8291 44.6729 8.15267 45.0283 8.7998H45.0557V4.63672H47.2158V15ZM45.0967 11.5957V11.0693C45.0967 10.6136 44.9645 10.2354 44.7002 9.93457C44.4359 9.63379 44.0918 9.4834 43.668 9.4834C43.1895 9.4834 42.8158 9.67253 42.5469 10.0508C42.278 10.4245 42.1436 10.9395 42.1436 11.5957C42.1436 12.2109 42.2734 12.6849 42.5332 13.0176C42.793 13.3503 43.153 13.5166 43.6133 13.5166C44.0508 13.5166 44.4062 13.3411 44.6797 12.9902C44.9577 12.6393 45.0967 12.1745 45.0967 11.5957Z" fill="url(#paint0_linear_13_1088)"/>
<defs>
<linearGradient id="paint0_linear_13_1088" x1="1.17278e-09" y1="14.8066" x2="49.4133" y2="13.7853" gradientUnits="userSpaceOnUse">
<stop stop-color="#ECE425"/>
<stop offset="1" stop-color="#FF6C1A"/>
</linearGradient>
</defs>
</svg>
