<svg width="46" height="19" viewBox="0 0 46 19" fill="none" xmlns="http://www.w3.org/2000/svg">
<path d="M12.291 15H10.1104V9.13477C10.1104 8.5013 10.1377 7.80176 10.1924 7.03613H10.1377C10.0238 7.6377 9.92122 8.07064 9.83008 8.33496L7.5332 15H5.72852L3.39062 8.40332C3.32682 8.22559 3.22428 7.76986 3.08301 7.03613H3.02148C3.08073 8.00228 3.11035 8.84993 3.11035 9.5791V15H1.12109V5.19727H4.35449L6.35742 11.0078C6.51693 11.4727 6.63314 11.9398 6.70605 12.4092H6.74707C6.87012 11.8669 7 11.3952 7.13672 10.9941L9.13965 5.19727H12.291V15ZM20.9727 8L18.1289 15.5605C17.4453 17.3789 16.4154 18.2881 15.0391 18.2881C14.515 18.2881 14.0843 18.2288 13.7471 18.1104V16.3877C14.0342 16.5563 14.3464 16.6406 14.6836 16.6406C15.2396 16.6406 15.627 16.3786 15.8457 15.8545L16.2148 14.9863L13.3711 8H15.7637L17.0693 12.2588C17.1514 12.5231 17.2152 12.8353 17.2607 13.1953H17.2881C17.3291 12.931 17.4043 12.6234 17.5137 12.2725L18.833 8H20.9727ZM26.0996 14.918C25.7806 15.0866 25.2998 15.1709 24.6572 15.1709C23.1351 15.1709 22.374 14.3802 22.374 12.7988V9.59277H21.2393V8H22.374V6.48926L24.5273 5.87402V8H26.0996V9.59277H24.5273V12.4229C24.5273 13.152 24.8167 13.5166 25.3955 13.5166C25.6234 13.5166 25.8581 13.4505 26.0996 13.3184V14.918ZM34.043 15H31.8896V11.0215C31.8896 9.99609 31.516 9.4834 30.7686 9.4834C30.3857 9.4834 30.0758 9.62695 29.8389 9.91406C29.6019 10.2012 29.4834 10.5658 29.4834 11.0078V15H27.3232V4.63672H29.4834V9.03906H29.5107C30.0394 8.23242 30.7572 7.8291 31.6641 7.8291C33.25 7.8291 34.043 8.78613 34.043 10.7002V15ZM36.8525 6.89258C36.488 6.89258 36.1895 6.78548 35.957 6.57129C35.7246 6.35254 35.6084 6.08594 35.6084 5.77148C35.6084 5.44792 35.7246 5.18359 35.957 4.97852C36.1895 4.77344 36.488 4.6709 36.8525 4.6709C37.2217 4.6709 37.5202 4.77344 37.748 4.97852C37.9805 5.18359 38.0967 5.44792 38.0967 5.77148C38.0967 6.09961 37.9805 6.36849 37.748 6.57812C37.5202 6.78776 37.2217 6.89258 36.8525 6.89258ZM37.9189 15H35.7588V8H37.9189V15ZM45.042 14.7471C44.5544 15.0296 43.8503 15.1709 42.9297 15.1709C41.8542 15.1709 40.9837 14.8451 40.3184 14.1934C39.653 13.5417 39.3203 12.7008 39.3203 11.6709C39.3203 10.4814 39.6758 9.54492 40.3867 8.86133C41.1022 8.17318 42.057 7.8291 43.251 7.8291C44.0758 7.8291 44.6729 7.93848 45.042 8.15723V9.98926C44.5908 9.65202 44.0872 9.4834 43.5312 9.4834C42.9115 9.4834 42.4193 9.66569 42.0547 10.0303C41.6947 10.3903 41.5146 10.8893 41.5146 11.5273C41.5146 12.1471 41.6878 12.6348 42.0342 12.9902C42.3805 13.3411 42.8568 13.5166 43.4629 13.5166C44.0007 13.5166 44.527 13.348 45.042 13.0107V14.7471Z" fill="url(#paint0_linear_13_1086)"/>
<defs>
<linearGradient id="paint0_linear_13_1086" x1="26.45" y1="13.3965" x2="51.8559" y2="13.3965" gradientUnits="userSpaceOnUse">
<stop stop-color="#A125EC"/>
<stop offset="1" stop-color="#BF2FB0"/>
</linearGradient>
</defs>
</svg>
