<svg width="30" height="19" viewBox="0 0 30 19" fill="none" xmlns="http://www.w3.org/2000/svg">
<path d="M9.34473 15H6.80859L5.28418 12.4775C5.17025 12.2861 5.06087 12.1152 4.95605 11.9648C4.85124 11.8145 4.74414 11.6868 4.63477 11.582C4.52995 11.4727 4.41829 11.3906 4.2998 11.3359C4.18587 11.2767 4.06055 11.2471 3.92383 11.2471H3.3291V15H1.12109V5.19727H4.62109C7 5.19727 8.18945 6.08594 8.18945 7.86328C8.18945 8.20508 8.13704 8.52181 8.03223 8.81348C7.92741 9.10059 7.7793 9.36035 7.58789 9.59277C7.39648 9.8252 7.16406 10.0257 6.89062 10.1943C6.62174 10.363 6.32096 10.4951 5.98828 10.5908V10.6182C6.13411 10.6637 6.27539 10.7389 6.41211 10.8438C6.54883 10.944 6.68099 11.0625 6.80859 11.1992C6.9362 11.3359 7.05697 11.484 7.1709 11.6436C7.28939 11.7985 7.39648 11.9512 7.49219 12.1016L9.34473 15ZM3.3291 6.85156V9.5791H4.28613C4.76009 9.5791 5.14062 9.44238 5.42773 9.16895C5.7194 8.89095 5.86523 8.54688 5.86523 8.13672C5.86523 7.27995 5.35254 6.85156 4.32715 6.85156H3.3291ZM15.8799 15H13.8359V13.9951H13.8086C13.3392 14.779 12.6442 15.1709 11.7236 15.1709C11.0446 15.1709 10.5091 14.9795 10.1172 14.5967C9.72982 14.2093 9.53613 13.6943 9.53613 13.0518C9.53613 11.6937 10.3405 10.9098 11.9492 10.7002L13.8496 10.4473C13.8496 9.68164 13.4349 9.29883 12.6055 9.29883C11.7715 9.29883 10.9785 9.5472 10.2266 10.0439V8.41699C10.5273 8.26204 10.9375 8.12533 11.457 8.00684C11.9811 7.88835 12.4574 7.8291 12.8857 7.8291C14.8818 7.8291 15.8799 8.82487 15.8799 10.8164V15ZM13.8496 12.1562V11.6846L12.5781 11.8486C11.8763 11.9398 11.5254 12.2565 11.5254 12.7988C11.5254 13.0449 11.6097 13.2477 11.7783 13.4072C11.9515 13.5622 12.1839 13.6396 12.4756 13.6396C12.8812 13.6396 13.2116 13.5007 13.4668 13.2227C13.722 12.9401 13.8496 12.5846 13.8496 12.1562ZM22.1553 9.94824C21.8955 9.80697 21.5924 9.73633 21.2461 9.73633C20.7767 9.73633 20.4098 9.90951 20.1455 10.2559C19.8812 10.5977 19.749 11.0648 19.749 11.6572V15H17.5889V8H19.749V9.29883H19.7764C20.1182 8.35091 20.7334 7.87695 21.6221 7.87695C21.8499 7.87695 22.0277 7.9043 22.1553 7.95898V9.94824ZM29.4014 12.1152H24.835C24.9079 13.1315 25.5482 13.6396 26.7559 13.6396C27.526 13.6396 28.2028 13.4574 28.7861 13.0928V14.6514C28.139 14.9977 27.2982 15.1709 26.2637 15.1709C25.1335 15.1709 24.2562 14.8587 23.6318 14.2344C23.0075 13.6055 22.6953 12.7305 22.6953 11.6094C22.6953 10.4473 23.0326 9.52669 23.707 8.84766C24.3815 8.16862 25.2109 7.8291 26.1953 7.8291C27.2161 7.8291 28.0046 8.13216 28.5605 8.73828C29.1211 9.3444 29.4014 10.167 29.4014 11.2061V12.1152ZM27.3984 10.7891C27.3984 9.78646 26.9928 9.28516 26.1816 9.28516C25.8353 9.28516 25.5345 9.42871 25.2793 9.71582C25.0286 10.0029 24.876 10.3607 24.8213 10.7891H27.3984Z" fill="url(#paint0_linear_13_1092)"/>
<defs>
<linearGradient id="paint0_linear_13_1092" x1="1.15385" y1="11.2813" x2="29.4079" y2="11.2813" gradientUnits="userSpaceOnUse">
<stop stop-color="#4738F7"/>
<stop offset="1" stop-color="#2FB6BF"/>
</linearGradient>
</defs>
</svg>
