<svg width="77" height="19" viewBox="0 0 77 19" fill="none" xmlns="http://www.w3.org/2000/svg">
<path d="M9.1123 10.7549C9.1123 13.6989 7.74056 15.1709 4.99707 15.1709C2.33561 15.1709 1.00488 13.7331 1.00488 10.8574V5.19727H3.21973V10.8848C3.21973 12.4707 3.83952 13.2637 5.0791 13.2637C6.2959 13.2637 6.9043 12.498 6.9043 10.9668V5.19727H9.1123V10.7549ZM17.8008 15H15.6475V11.1104C15.6475 10.0257 15.2601 9.4834 14.4854 9.4834C14.1117 9.4834 13.804 9.62695 13.5625 9.91406C13.321 10.2012 13.2002 10.5658 13.2002 11.0078V15H11.04V8H13.2002V9.10742H13.2275C13.7425 8.25521 14.4922 7.8291 15.4766 7.8291C17.026 7.8291 17.8008 8.79069 17.8008 10.7139V15ZM24.8213 14.7471C24.3337 15.0296 23.6296 15.1709 22.709 15.1709C21.6335 15.1709 20.763 14.8451 20.0977 14.1934C19.4323 13.5417 19.0996 12.7008 19.0996 11.6709C19.0996 10.4814 19.4551 9.54492 20.166 8.86133C20.8815 8.17318 21.8363 7.8291 23.0303 7.8291C23.8551 7.8291 24.4521 7.93848 24.8213 8.15723V9.98926C24.3701 9.65202 23.8665 9.4834 23.3105 9.4834C22.6908 9.4834 22.1986 9.66569 21.834 10.0303C21.474 10.3903 21.2939 10.8893 21.2939 11.5273C21.2939 12.1471 21.4671 12.6348 21.8135 12.9902C22.1598 13.3411 22.6361 13.5166 23.2422 13.5166C23.7799 13.5166 24.3063 13.348 24.8213 13.0107V14.7471ZM29.5791 15.1709C28.4124 15.1709 27.4941 14.8451 26.8242 14.1934C26.1589 13.5371 25.8262 12.6484 25.8262 11.5273C25.8262 10.3698 26.1725 9.46517 26.8652 8.81348C27.5579 8.15723 28.4945 7.8291 29.6748 7.8291C30.8369 7.8291 31.7484 8.15723 32.4092 8.81348C33.07 9.46517 33.4004 10.3288 33.4004 11.4043C33.4004 12.5664 33.0586 13.4847 32.375 14.1592C31.696 14.8337 30.764 15.1709 29.5791 15.1709ZM29.6338 9.4834C29.1234 9.4834 28.7269 9.65885 28.4443 10.0098C28.1618 10.3607 28.0205 10.8574 28.0205 11.5C28.0205 12.8444 28.5628 13.5166 29.6475 13.5166C30.682 13.5166 31.1992 12.8262 31.1992 11.4453C31.1992 10.1374 30.6774 9.4834 29.6338 9.4834ZM45.917 15H43.7637V11.0078C43.7637 9.99154 43.39 9.4834 42.6426 9.4834C42.2871 9.4834 41.9977 9.63607 41.7744 9.94141C41.5511 10.2467 41.4395 10.6273 41.4395 11.083V15H39.2793V10.9668C39.2793 9.97786 38.9124 9.4834 38.1787 9.4834C37.8096 9.4834 37.5133 9.62923 37.29 9.9209C37.0713 10.2126 36.9619 10.609 36.9619 11.1104V15H34.8018V8H36.9619V9.09375H36.9893C37.2126 8.72005 37.5247 8.41699 37.9258 8.18457C38.3314 7.94759 38.7734 7.8291 39.252 7.8291C40.2409 7.8291 40.9176 8.26432 41.2822 9.13477C41.8154 8.26432 42.5993 7.8291 43.6338 7.8291C45.1559 7.8291 45.917 8.7679 45.917 10.6455V15ZM58.7412 15H56.5879V11.0078C56.5879 9.99154 56.2142 9.4834 55.4668 9.4834C55.1113 9.4834 54.8219 9.63607 54.5986 9.94141C54.3753 10.2467 54.2637 10.6273 54.2637 11.083V15H52.1035V10.9668C52.1035 9.97786 51.7367 9.4834 51.0029 9.4834C50.6338 9.4834 50.3376 9.62923 50.1143 9.9209C49.8955 10.2126 49.7861 10.609 49.7861 11.1104V15H47.626V8H49.7861V9.09375H49.8135C50.0368 8.72005 50.349 8.41699 50.75 8.18457C51.1556 7.94759 51.5977 7.8291 52.0762 7.8291C53.0651 7.8291 53.7419 8.26432 54.1064 9.13477C54.6396 8.26432 55.4235 7.8291 56.458 7.8291C57.9801 7.8291 58.7412 8.7679 58.7412 10.6455V15ZM63.7861 15.1709C62.6195 15.1709 61.7012 14.8451 61.0312 14.1934C60.3659 13.5371 60.0332 12.6484 60.0332 11.5273C60.0332 10.3698 60.3796 9.46517 61.0723 8.81348C61.765 8.15723 62.7015 7.8291 63.8818 7.8291C65.0439 7.8291 65.9554 8.15723 66.6162 8.81348C67.277 9.46517 67.6074 10.3288 67.6074 11.4043C67.6074 12.5664 67.2656 13.4847 66.582 14.1592C65.903 14.8337 64.971 15.1709 63.7861 15.1709ZM63.8408 9.4834C63.3304 9.4834 62.9339 9.65885 62.6514 10.0098C62.3688 10.3607 62.2275 10.8574 62.2275 11.5C62.2275 12.8444 62.7699 13.5166 63.8545 13.5166C64.889 13.5166 65.4062 12.8262 65.4062 11.4453C65.4062 10.1374 64.8844 9.4834 63.8408 9.4834ZM75.7695 15H73.6162V11.1104C73.6162 10.0257 73.2288 9.4834 72.4541 9.4834C72.0804 9.4834 71.7728 9.62695 71.5312 9.91406C71.2897 10.2012 71.1689 10.5658 71.1689 11.0078V15H69.0088V8H71.1689V9.10742H71.1963C71.7113 8.25521 72.4609 7.8291 73.4453 7.8291C74.9948 7.8291 75.7695 8.79069 75.7695 10.7139V15Z" fill="#0CE749"/>
</svg>
